Coordinates
version=1
nRows=11
nColumns=63
inDegrees=yes

Units are S.I. units (second, meters, Newtons, ...)
If the header above contains a line with 'inDegrees', this indicates whether rotational values are in degrees (yes) or radians (no).

endheader
time	pelvis_tilt	pelvis_list	pelvis_rotation	pelvis_tx	pelvis_ty	pelvis_tz	hip_flexion_r	hip_adduction_r	hip_rotation_r	knee_angle_r	knee_angle_r_beta	ankle_angle_r	subtalar_angle_r	mtp_angle_r	hip_flexion_l	hip_adduction_l	hip_rotation_l	knee_angle_l	knee_angle_l_beta	ankle_angle_l	subtalar_angle_l	mtp_angle_l	L5_S1_Flex_Ext	L5_S1_Lat_Bending	L5_S1_axial_rotation	L4_L5_Flex_Ext	L4_L5_Lat_Bending	L4_L5_axial_rotation	L3_L4_Flex_Ext	L3_L4_Lat_Bending	L3_L4_axial_rotation	L2_L3_Flex_Ext	L2_L3_Lat_Bending	L2_L3_axial_rotation	L1_L2_Flex_Ext	L1_L2_Lat_Bending	L1_L2_axial_rotation	L1_T12_Flex_Ext	L1_T12_Lat_Bending	L1_T12_axial_rotation	Abs_r3	Abs_r2	Abs_r1	Abs_t1	Abs_t2	neck_flexion	neck_bending	neck_rotation	arm_flex_r	arm_add_r	arm_rot_r	elbow_flex_r	pro_sup_r	wrist_flex_r	wrist_dev_r	arm_flex_l	arm_add_l	arm_rot_l	elbow_flex_l	pro_sup_l	wrist_flex_l	wrist_dev_l
0.779661	4.306096	-4.773445	94.385993	0.099412	0.685212	0.775773	-2.942118	5.158314	5.263276	6.302659	0.110002	26.445312	-10.113854	0.000000	-0.582948	-4.018725	1.918212	10.184118	0.177746	32.930139	-1.731615	0.000000	0.047452	0.224547	0.103578	0.088123	0.298648	0.110052	0.077959	0.545964	0.110052	0.054233	0.545964	0.090631	0.044064	0.457896	0.084157	0.027114	0.347823	0.077684	0.338946	2.540122	0.576071	0.000000	0.000000	20.850989	0.466181	-6.338890	3.288712	-10.200312	47.075233	60.661293	25.824672	-14.855933	17.831156	8.106417	-10.197465	47.581939	59.231415	84.956916	13.052481	9.789962
0.796610	4.389172	-4.760715	94.423152	0.099273	0.685344	0.775792	-2.986605	5.243007	5.296548	6.166827	0.107631	26.490137	-10.031975	0.000000	-0.547715	-4.108434	1.992822	10.255731	0.178996	32.929203	-1.773645	0.000000	0.047487	0.236286	0.107427	0.088189	0.314260	0.114141	0.078017	0.574505	0.114141	0.054273	0.574505	0.093999	0.044097	0.481834	0.087284	0.027134	0.366007	0.080570	0.339198	2.672912	0.597477	0.000000	0.000000	20.812522	0.376330	-6.385584	2.569130	-10.319076	46.314714	61.355293	23.972556	-16.110938	17.386435	8.152473	-10.063995	47.778895	59.025032	84.890967	13.205299	9.306042
0.813559	4.466849	-4.749929	94.459756	0.099174	0.685514	0.775872	-3.022138	5.324684	5.345000	6.033915	0.105312	26.534822	-9.980917	0.000000	-0.502471	-4.193680	2.079617	10.341046	0.180485	32.906618	-1.849365	0.000000	0.047263	0.246561	0.110453	0.087772	0.327926	0.117357	0.077648	0.599488	0.117357	0.054017	0.599488	0.096647	0.043888	0.502787	0.089743	0.027006	0.381923	0.082840	0.337594	2.789147	0.614308	0.000000	0.000000	20.752968	0.314816	-6.433329	1.911946	-10.509735	45.765565	62.164504	21.249152	-17.628414	16.708065	8.202910	-9.937007	47.962154	58.846254	84.859580	13.354633	8.848186
0.830508	4.529711	-4.741915	94.480686	0.099137	0.685712	0.776015	-3.044674	5.392314	5.386450	5.919741	0.103319	26.565311	-9.948132	0.000000	-0.452591	-4.263955	2.159643	10.432611	0.182083	32.859410	-1.951616	0.000000	0.046726	0.254442	0.115071	0.086774	0.338408	0.122262	0.076765	0.618651	0.122262	0.053403	0.618651	0.100687	0.043389	0.518859	0.093495	0.026699	0.394131	0.086303	0.333756	2.878302	0.639988	0.000000	0.000000	20.649399	0.285457	-6.472030	1.321080	-10.769683	45.414727	63.003020	17.985295	-19.063504	15.991359	8.261495	-9.834267	48.130806	58.730493	84.877793	13.464504	8.411465
0.847458	4.573881	-4.737714	94.454476	0.099197	0.685921	0.776220	-3.048144	5.440458	5.429072	5.841147	0.101947	26.586501	-9.936759	0.000000	-0.403235	-4.312743	2.202115	10.527274	0.183736	32.797272	-2.084522	0.000000	0.046243	0.260297	0.123864	0.085877	0.346194	0.131605	0.075972	0.632885	0.131605	0.052851	0.632885	0.108381	0.042941	0.530797	0.100639	0.026423	0.403199	0.092898	0.330306	2.944527	0.688894	0.000000	0.000000	20.462516	0.278069	-6.446047	0.835499	-11.063862	45.149398	63.774307	15.539699	-20.045082	15.236385	8.322683	-9.767659	48.254601	58.704505	84.904854	13.584877	8.034774
0.864407	4.591253	-4.719921	94.377853	0.099350	0.686141	0.776473	-3.060753	5.461095	5.498411	5.785097	0.100969	26.574436	-9.964383	0.000000	-0.385203	-4.332638	2.208959	10.601075	0.185024	32.721075	-2.220576	0.000000	0.042113	0.263726	0.137603	0.078207	0.350755	0.146204	0.069187	0.641223	0.146204	0.048130	0.641223	0.120403	0.039106	0.537790	0.111803	0.024063	0.408511	0.103203	0.300806	2.983319	0.765309	0.000000	0.000000	20.218170	0.297607	-6.322893	0.455183	-11.362061	44.830306	64.468442	14.828962	-20.408286	14.162629	8.381565	-9.747858	48.292883	58.802367	85.030238	13.798106	7.722516
0.881356	4.577574	-4.703389	94.219228	0.099601	0.686346	0.776773	-3.060227	5.443183	5.590443	5.764205	0.100604	26.557556	-9.987270	0.000000	-0.388154	-4.311453	2.164589	10.649813	0.185874	32.634135	-2.387571	0.000000	0.037419	0.264569	0.158477	0.069491	0.351876	0.168382	0.061476	0.643272	0.168382	0.042766	0.643272	0.138668	0.034747	0.539509	0.128763	0.021381	0.409817	0.118858	0.267281	2.992854	0.881403	0.000000	0.000000	19.882127	0.317143	-6.128679	0.253027	-11.676143	44.618417	65.081095	15.797231	-20.298611	12.724591	8.407101	-9.781163	48.220830	59.032709	85.151834	14.102213	7.480516
0.898305	4.532059	-4.684484	93.980194	0.099955	0.686521	0.777100	-3.061224	5.385467	5.748704	5.758409	0.100503	26.526153	-10.021561	0.000000	-0.424578	-4.249872	2.078807	10.654496	0.185956	32.540298	-2.557372	0.000000	0.030967	0.262804	0.185039	0.057508	0.349529	0.196604	0.050875	0.638982	0.196604	0.035392	0.638982	0.161909	0.028756	0.535910	0.150344	0.017694	0.407083	0.138779	0.221193	2.972892	1.029131	0.000000	0.000000	19.485154	0.340705	-5.830874	0.240196	-12.006185	44.538893	65.620683	18.312114	-19.605927	10.935327	8.362896	-9.888248	48.003074	59.430515	85.318021	14.487527	7.300152
0.915254	4.455897	-4.658819	93.645012	0.100396	0.686668	0.777412	-3.067269	5.286710	5.977131	5.768767	0.100684	26.494810	-10.053456	0.000000	-0.508317	-4.144830	1.940107	10.604460	0.185083	32.438816	-2.738254	0.000000	0.023147	0.259186	0.221495	0.042986	0.344718	0.235338	0.038028	0.630185	0.235338	0.026455	0.630185	0.193808	0.021494	0.528533	0.179965	0.013226	0.401479	0.166121	0.165337	2.931966	1.231889	0.000000	0.000000	19.005256	0.354351	-5.428188	0.385145	-12.362456	44.562906	66.082416	22.313944	-18.241914	8.870698	8.204457	-10.042616	47.601653	59.944917	85.579312	14.944256	7.016876
0.932203	4.348981	-4.630496	93.212010	0.100945	0.686768	0.777702	-3.069357	5.146104	6.273556	5.803303	0.101287	26.476260	-10.064379	0.000000	-0.635723	-4.007251	1.630024	10.499232	0.183246	32.366678	-2.763837	0.000000	0.014184	0.252821	0.268998	0.026340	0.336252	0.285810	0.023302	0.614708	0.285810	0.016210	0.614708	0.235373	0.013171	0.515552	0.218561	0.008105	0.391619	0.201748	0.101312	2.859959	1.496085	0.000000	0.000000	18.467873	0.368078	-4.967793	0.661113	-12.738736	44.635225	66.479703	27.703643	-16.088233	6.892211	7.899015	-10.253942	46.986484	60.576717	85.895356	15.398302	6.642194
0.949153	4.211431	-4.613737	92.696452	0.101585	0.686789	0.777937	-3.046843	4.960907	6.551925	5.873847	0.102518	26.517311	-9.918035	0.000000	-0.794423	-3.834509	1.213294	10.332679	0.180339	32.315504	-2.699767	0.000000	0.006713	0.242950	0.323731	0.012468	0.323123	0.343964	0.011030	0.590708	0.343964	0.007673	0.590708	0.283265	0.006234	0.495423	0.263032	0.003836	0.376329	0.242798	0.047953	2.748298	1.800496	0.000000	0.000000	17.889281	0.399415	-4.483515	1.020125	-13.167274	44.755511	66.830482	34.142239	-13.255803	5.077223	7.391874	-10.515900	46.107314	61.344519	86.236691	15.694304	6.172502
